<svg width="34" height="34" viewBox="0 0 34 34" fill="none" xmlns="http://www.w3.org/2000/svg">
<path fill-rule="evenodd" clip-rule="evenodd" d="M14.6359 5.57336C16.1635 4.04572 18.2354 3.1875 20.3958 3.1875H24.6458C25.2326 3.1875 25.7083 3.6632 25.7083 4.25V9.91667C25.7083 10.5035 25.2326 10.9792 24.6458 10.9792H20.3958C20.3019 10.9792 20.2118 11.0165 20.1454 11.0829C20.079 11.1493 20.0417 11.2394 20.0417 11.3333V13.1042H24.6458C24.973 13.1042 25.2819 13.2549 25.4833 13.5128C25.6847 13.7707 25.756 14.1069 25.6766 14.4244L24.2599 20.091C24.1417 20.564 23.7167 20.8958 23.2292 20.8958H20.0417V29.75C20.0417 30.3368 19.566 30.8125 18.9792 30.8125H13.3125C12.7257 30.8125 12.25 30.3368 12.25 29.75V20.8958H9.0625C8.4757 20.8958 8 20.4201 8 19.8333V14.1667C8 13.5799 8.4757 13.1042 9.0625 13.1042H12.25V11.3333C12.25 9.17292 13.1082 7.101 14.6359 5.57336ZM20.3958 5.3125C18.799 5.3125 17.2676 5.94684 16.1385 7.07596C15.0093 8.20509 14.375 9.73651 14.375 11.3333V14.1667C14.375 14.7535 13.8993 15.2292 13.3125 15.2292H10.125V18.7708H13.3125C13.8993 18.7708 14.375 19.2465 14.375 19.8333V28.6875H17.9167V19.8333C17.9167 19.2465 18.3924 18.7708 18.9792 18.7708H22.3996L23.285 15.2292H18.9792C18.3924 15.2292 17.9167 14.7535 17.9167 14.1667V11.3333C17.9167 10.6758 18.1779 10.0452 18.6428 9.5803C19.1077 9.11536 19.7383 8.85417 20.3958 8.85417H23.5833V5.3125H20.3958Z" fill="white"/>
</svg>
